<svg width="13" height="15" viewBox="0 0 13 15" fill="none" xmlns="http://www.w3.org/2000/svg">
<path d="M6.49893 7.33599C8.16668 7.33599 9.51877 5.69379 9.51877 3.66801C9.51877 1.6422 9.07486 0 6.49893 0C3.923 0 3.479 1.6422 3.479 3.66801C3.479 5.69379 4.8311 7.33599 6.49893 7.33599Z" fill="#3D3D3D"/>
<path d="M0.796005 12.9365C0.79549 12.813 0.794974 12.9017 0.796005 12.9365V12.9365Z" fill="#3D3D3D"/>
<path d="M12.2021 13.0341C12.2038 13.0003 12.2027 12.7995 12.2021 13.0341V13.0341Z" fill="#3D3D3D"/>
<path d="M12.198 12.7902C12.1421 9.26122 11.6812 8.25566 8.15437 7.61914C8.15437 7.61914 7.65792 8.25176 6.50077 8.25176C5.34363 8.25176 4.84709 7.61914 4.84709 7.61914C1.35873 8.24871 0.869818 9.23936 0.805532 12.6755C0.800261 12.9561 0.797818 12.9709 0.796875 12.9383C0.797089 12.9993 0.797346 13.1122 0.797346 13.309C0.797346 13.309 1.637 15.0017 6.50077 15.0017C11.3645 15.0017 12.2042 13.309 12.2042 13.309C12.2042 13.1826 12.2043 13.0946 12.2044 13.0348C12.2035 13.0549 12.2016 13.0159 12.198 12.7902Z" fill="#3D3D3D"/>
</svg>
