<svg width="15" height="11" viewBox="0 0 15 11" fill="none" xmlns="http://www.w3.org/2000/svg">
<path d="M14.9893 1.23045C14.9893 1.21331 15.0011 1.19663 15.0003 1.17969L10.4229 5.59034L14.9949 9.8601C14.9975 9.8296 14.9893 9.79884 14.9893 9.76769V1.23045Z" fill="#1D9069"/>
<path d="M9.72396 6.26758L7.8553 8.06547C7.76074 8.15645 7.63861 8.20206 7.51642 8.20206C7.39677 8.20206 7.27712 8.1584 7.18321 8.07088L5.31963 6.33431L0.717773 10.77C0.829669 10.8102 0.949776 10.8414 1.07555 10.8414H13.9574C14.1441 10.8414 14.3193 10.7845 14.4716 10.6997L9.72396 6.26758Z" fill="#1D9069"/>
<path d="M7.51075 7.04085L14.4966 0.31142C14.3385 0.217381 14.1544 0.154297 13.957 0.154297H1.07522C0.818257 0.154297 0.5828 0.254071 0.399414 0.406241L7.51075 7.04085Z" fill="#1D9069"/>
<path d="M0 1.39258V9.76578C0 9.86191 0.0220924 9.95458 0.0460746 10.0431L4.59085 5.66664L0 1.39258Z" fill="#1D9069"/>
</svg>
