<svg width="15" height="15" viewBox="0 0 15 15" fill="none" xmlns="http://www.w3.org/2000/svg">
<path d="M14.1933 1.12943e-06H0.820372C0.584361 -0.000445017 0.36813 0.131316 0.260311 0.341153C0.151006 0.553815 0.17019 0.809902 0.309833 1.00412L5.2091 7.90583C5.21074 7.90821 5.21252 7.91044 5.21416 7.91282C5.39217 8.15314 5.48854 8.44433 5.48899 8.74339V14.3703C5.48794 14.5369 5.55338 14.697 5.67072 14.8153C5.7882 14.9333 5.94792 15 6.11448 15C6.1991 14.9998 6.28298 14.983 6.3612 14.9504L9.11421 13.9008C9.36078 13.8254 9.52452 13.5927 9.52452 13.3125V8.74339C9.52497 8.44433 9.62133 8.15314 9.7992 7.91282C9.80083 7.91044 9.80262 7.90821 9.80425 7.90583L14.7037 1.00397C14.8433 0.809902 14.8625 0.553964 14.7532 0.341302C14.6455 0.131316 14.4291 -0.000445017 14.1933 1.12943e-06Z" fill="white"/>
</svg>
