<svg width="34" height="34" viewBox="0 0 34 34" fill="none" xmlns="http://www.w3.org/2000/svg">
<path d="M9.80716 11.5455C11.458 9.37377 14.0679 7.96875 17.0002 7.96875C19.4124 7.96875 21.6804 8.90813 23.3862 10.6139L24.0905 11.3182L29.7253 5.68351L29.021 4.97921C25.8101 1.76833 21.5411 0 17.0002 0C12.4593 0 8.19023 1.76833 4.97929 4.97914C4.68784 5.27066 4.4086 5.57109 4.14111 5.87941L9.80716 11.5455Z" fill="#88BD62"/>
<path d="M28.1205 29.859C28.4288 29.5915 28.7293 29.3123 29.0209 29.0208C32.2317 25.8099 34 21.5408 34 17C34 15.9657 33.9064 14.9295 33.7216 13.9202L33.5721 13.1035H16.0039V21.0723H25.0652C24.4385 22.3189 23.5421 23.3818 22.4621 24.2006L28.1205 29.859Z" fill="#88BD62"/>
<path d="M20.6925 25.2478C19.5575 25.754 18.3054 26.0309 17.0002 26.0309C14.0679 26.0309 11.458 24.6259 9.80716 22.4541L4.14111 28.1202C4.4086 28.4285 4.68784 28.729 4.97929 29.0204C8.19023 32.2313 12.4593 33.9996 17.0002 33.9996C20.4477 33.9996 23.738 32.9794 26.5281 31.0834L20.6925 25.2478Z" fill="#88BD62"/>
<path d="M8.75653 20.6872C8.25058 19.5606 7.96875 18.3124 7.96875 16.9996C7.96875 15.6867 8.25058 14.4386 8.75653 13.312L2.91623 7.47168C1.0202 10.2617 0 13.552 0 16.9996C0 20.4471 1.0202 23.7374 2.91623 26.5275L8.75653 20.6872Z" fill="#88BD62"/>
</svg>
