<svg width="20" height="20" viewBox="0 0 20 20" fill="none" xmlns="http://www.w3.org/2000/svg">
<g clip-path="url(#clip0)">
<path d="M14.6768 12.9094C15.661 11.5654 16.2497 9.91462 16.2497 8.12498C16.2497 3.64502 12.6047 0 8.1247 0C3.64474 0 -0.000244141 3.64502 -0.000244141 8.12498C-0.000244141 12.6049 3.64478 16.25 8.12474 16.25C9.91437 16.25 11.5654 15.6612 12.9093 14.677L18.2322 19.9999L19.9998 18.2323C19.9998 18.2323 14.6768 12.9094 14.6768 12.9094ZM8.12474 13.75C5.02293 13.75 2.49977 11.2268 2.49977 8.12498C2.49977 5.02318 5.02293 2.50001 8.12474 2.50001C11.2265 2.50001 13.7497 5.02318 13.7497 8.12498C13.7497 11.2268 11.2265 13.75 8.12474 13.75Z" fill="white"/>
</g>
<defs>
<clipPath id="clip0">
<rect width="20" height="20" fill="white" transform="translate(-0.000244141)"/>
</clipPath>
</defs>
</svg>
