<svg width="34" height="34" viewBox="0 0 34 34" fill="none" xmlns="http://www.w3.org/2000/svg">
<g clip-path="url(#clip0)">
<path d="M33.9668 9.99609C33.8872 8.18954 33.595 6.94755 33.1765 5.87136C32.7448 4.729 32.0806 3.70624 31.2104 2.85603C30.3602 1.99258 29.3307 1.32164 28.2016 0.896659C27.1191 0.478167 25.8836 0.186026 24.0771 0.106375C22.2571 0.0199776 21.6793 0 17.0631 0C12.447 0 11.8692 0.0199776 10.0559 0.0996288C8.24935 0.17928 7.00736 0.47168 5.93143 0.889914C4.78881 1.32164 3.76606 1.98583 2.91584 2.85603C2.05239 3.70624 1.38171 4.73574 0.956473 5.86487C0.537981 6.94755 0.24584 8.1828 0.166189 9.98935C0.0797921 11.8094 0.0598145 12.3872 0.0598145 17.0033C0.0598145 21.6195 0.0797921 22.1973 0.159443 24.0105C0.239094 25.8171 0.531494 27.0591 0.949987 28.1353C1.38171 29.2776 2.05239 30.3004 2.91584 31.1506C3.76606 32.0141 4.79555 32.685 5.92468 33.11C7.00736 33.5285 8.24261 33.8206 10.0494 33.9003C11.8625 33.9802 12.4405 33.9999 17.0566 33.9999C21.6728 33.9999 22.2506 33.9802 24.0639 33.9003C25.8704 33.8206 27.1124 33.5285 28.1883 33.11C30.4733 32.2266 32.2799 30.42 33.1633 28.1353C33.5815 27.0526 33.8739 25.8171 33.9536 24.0105C34.0332 22.1973 34.0532 21.6195 34.0532 17.0033C34.0532 12.3872 34.0465 11.8094 33.9668 9.99609ZM30.905 23.8777C30.8319 25.5382 30.553 26.4349 30.3205 27.0326C29.7492 28.5138 28.5736 29.6894 27.0924 30.2607C26.4946 30.4932 25.5915 30.7721 23.9375 30.845C22.1442 30.9249 21.6064 30.9446 17.0699 30.9446C12.5334 30.9446 11.9888 30.9249 10.202 30.845C8.54149 30.7721 7.64483 30.4932 7.04706 30.2607C6.30996 29.9883 5.63903 29.5566 5.09444 28.992C4.52988 28.4407 4.09815 27.7765 3.82573 27.0394C3.59326 26.4416 3.31435 25.5382 3.24145 23.8845C3.16154 22.0911 3.14182 21.553 3.14182 17.0166C3.14182 12.4801 3.16154 11.9355 3.24145 10.1489C3.31435 8.48843 3.59326 7.59177 3.82573 6.994C4.09815 6.25664 4.52988 5.58596 5.10119 5.04112C5.65226 4.47655 6.31645 4.04483 7.05381 3.77266C7.65158 3.5402 8.55498 3.26129 10.2087 3.18812C12.002 3.10847 12.5401 3.08849 17.0764 3.08849C21.6196 3.08849 22.1574 3.10847 23.9443 3.18812C25.6047 3.26129 26.5014 3.5402 27.0992 3.77266C27.8363 4.04483 28.5072 4.47655 29.0518 5.04112C29.6164 5.59245 30.0481 6.25664 30.3205 6.994C30.553 7.59177 30.8319 8.49492 30.905 10.1489C30.9847 11.9422 31.0047 12.4801 31.0047 17.0166C31.0047 21.553 30.9847 22.0844 30.905 23.8777Z" fill="#88BD62"/>
<path d="M17.0632 8.26855C12.2413 8.26855 8.3291 12.1805 8.3291 17.0027C8.3291 21.8248 12.2413 25.7368 17.0632 25.7368C21.8854 25.7368 25.7974 21.8248 25.7974 17.0027C25.7974 12.1805 21.8854 8.26855 17.0632 8.26855ZM17.0632 22.6683C13.935 22.6683 11.3976 20.1311 11.3976 17.0027C11.3976 13.8742 13.935 11.3371 17.0632 11.3371C20.1917 11.3371 22.7288 13.8742 22.7288 17.0027C22.7288 20.1311 20.1917 22.6683 17.0632 22.6683Z" fill="#88BD62"/>
<path d="M28.1818 7.92379C28.1818 9.0498 27.2688 9.96281 26.1425 9.96281C25.0165 9.96281 24.1035 9.0498 24.1035 7.92379C24.1035 6.79751 25.0165 5.88477 26.1425 5.88477C27.2688 5.88477 28.1818 6.79751 28.1818 7.92379Z" fill="#88BD62"/>
</g>
<defs>
<clipPath id="clip0">
<rect width="34" height="34" fill="white"/>
</clipPath>
</defs>
</svg>
