<svg width="24" height="20" viewBox="0 0 24 20" fill="none" xmlns="http://www.w3.org/2000/svg">
<path d="M9.6592 0.557151L9.65915 0.557196L1.4804 8.34782L1.48038 8.3478L1.47862 8.34957C1.10605 8.72263 0.9 9.21864 0.9 9.74632C0.9 10.2741 1.10649 10.7705 1.49512 11.1586L1.4951 11.1587L1.49681 11.1603L9.65959 18.9349C9.86033 19.1264 10.1178 19.2213 10.375 19.2213C10.6487 19.2213 10.9228 19.1134 11.1267 18.8992C11.5219 18.4842 11.5058 17.8279 11.0908 17.4327L11.0907 17.4325L4.08105 10.7838L22.5625 10.7838C23.1352 10.7838 23.6 10.3191 23.6 9.74632C23.6 9.17359 23.1352 8.70882 22.5625 8.70882L4.10983 8.70882L11.0904 2.05998C11.5054 1.66472 11.5215 1.00798 11.1262 0.592977C10.7314 0.178475 10.0747 0.161911 9.6592 0.557151Z" fill="black" stroke="black" stroke-width="0.2"/>
</svg>
