<svg width="20" height="20" viewBox="0 0 20 20" fill="none" xmlns="http://www.w3.org/2000/svg">
<g clip-path="url(#clip0)">
<path d="M18.4209 13.1684C17.1872 13.1684 15.9788 12.9758 14.8335 12.5979C14.2745 12.4053 13.6398 12.5537 13.2725 12.9284L11.0019 14.6432C8.39667 13.2527 6.7293 11.5863 5.35773 9.00001L7.02614 6.78316C7.44614 6.36316 7.59668 5.74841 7.41668 5.17264C7.03561 4.02 6.84194 2.81053 6.84194 1.57895C6.84194 0.708405 6.13354 0 5.263 0H1.57877C0.708222 0 -0.000183105 0.708405 -0.000183105 1.57895C-0.000183105 11.7358 8.26403 20 18.4209 20C19.2914 20 19.9998 19.2916 19.9998 18.4211V14.7474C19.9998 13.8768 19.2914 13.1684 18.4209 13.1684Z" fill="white"/>
</g>
<defs>
<clipPath id="clip0">
<rect width="20" height="20" fill="white" transform="translate(-0.000183105)"/>
</clipPath>
</defs>
</svg>
