<svg width="20" height="20" viewBox="0 0 20 20" fill="none" xmlns="http://www.w3.org/2000/svg">
<g clip-path="url(#clip0)">
<path d="M18.4208 13.1684C17.1871 13.1684 15.9787 12.9758 14.8334 12.5979C14.2745 12.4053 13.6398 12.5537 13.2724 12.9284L11.0019 14.6432C8.3966 13.2527 6.72923 11.5863 5.35767 9.00001L7.02608 6.78316C7.44608 6.36316 7.59662 5.74841 7.41662 5.17264C7.03555 4.02 6.84188 2.81053 6.84188 1.57895C6.84188 0.708405 6.13348 0 5.26293 0H1.5787C0.708161 0 -0.000244141 0.708405 -0.000244141 1.57895C-0.000244141 11.7358 8.26397 20 18.4208 20C19.2914 20 19.9998 19.2916 19.9998 18.4211V14.7474C19.9998 13.8768 19.2914 13.1684 18.4208 13.1684Z" fill="#1D9069"/>
</g>
<defs>
<clipPath id="clip0">
<rect width="20" height="20" fill="white" transform="translate(-0.000244141)"/>
</clipPath>
</defs>
</svg>
