<svg width="24" height="20" viewBox="0 0 24 20" fill="none" xmlns="http://www.w3.org/2000/svg">
<path d="M14.3408 18.935L14.3408 18.935L22.5196 11.1444L22.5196 11.1444L22.5214 11.1426C22.8939 10.7696 23.1 10.2735 23.1 9.74586C23.1 9.21804 22.8935 8.72168 22.5049 8.33355L22.5049 8.33353L22.5032 8.33189L14.3404 0.55724C14.1397 0.365832 13.8822 0.270865 13.625 0.270865C13.3513 0.270865 13.0772 0.378756 12.8733 0.593024C12.4781 1.00803 12.4942 1.66427 12.9092 2.05953L12.9093 2.05967L19.9189 8.70836L1.4375 8.70837C0.86477 8.70837 0.399999 9.17314 0.399999 9.74587C0.399999 10.3186 0.86477 10.7834 1.4375 10.7834L19.8902 10.7834L12.9096 17.4322C12.4946 17.8275 12.4785 18.4842 12.8738 18.8992C13.2686 19.3137 13.9253 19.3303 14.3408 18.935Z" fill="black" stroke="black" stroke-width="0.2"/>
</svg>
