<svg width="20" height="20" viewBox="0 0 20 20" fill="none" xmlns="http://www.w3.org/2000/svg">
<g clip-path="url(#clip0)">
<path d="M14.6769 12.9094C15.6611 11.5654 16.2497 9.91462 16.2497 8.12498C16.2497 3.64502 12.6047 0 8.12476 0C3.6448 0 -0.000183105 3.64502 -0.000183105 8.12498C-0.000183105 12.6049 3.64484 16.25 8.1248 16.25C9.91443 16.25 11.5654 15.6612 12.9094 14.677L18.2323 19.9999L19.9998 18.2323C19.9998 18.2323 14.6769 12.9094 14.6769 12.9094ZM8.1248 13.75C5.023 13.75 2.49983 11.2268 2.49983 8.12498C2.49983 5.02318 5.023 2.50001 8.1248 2.50001C11.2266 2.50001 13.7498 5.02318 13.7498 8.12498C13.7498 11.2268 11.2266 13.75 8.1248 13.75Z" fill="#3D3D3D"/>
</g>
<defs>
<clipPath id="clip0">
<rect width="20" height="20" fill="white" transform="translate(-0.000183105)"/>
</clipPath>
</defs>
</svg>
