<?xml version="1.0" encoding="utf-8"?>
<!-- Generator: Adobe Illustrator 16.0.0, SVG Export Plug-In . SVG Version: 6.00 Build 0)  -->
<!DOCTYPE svg PUBLIC "-//W3C//DTD SVG 1.1//EN" "http://www.w3.org/Graphics/SVG/1.1/DTD/svg11.dtd">
<svg version="1.1" id="Layer_1" xmlns="http://www.w3.org/2000/svg" xmlns:xlink="http://www.w3.org/1999/xlink" x="0px" y="0px"
	 width="151.583px" height="19px" viewBox="0 0 151.583 19" enable-background="new 0 0 151.583 19" xml:space="preserve">
<path fill="#1D9069" d="M10.201,0.306l2.478,5.865l6.344,0.545c0.44,0.038,0.619,0.587,0.285,0.876l-4.812,4.169l1.442,6.202
	c0.1,0.432-0.367,0.77-0.745,0.541l-5.452-3.288l-5.452,3.288c-0.379,0.229-0.845-0.111-0.745-0.541l1.442-6.202l-4.813-4.17
	c-0.334-0.289-0.156-0.838,0.285-0.876L6.802,6.17L9.28,0.306C9.452-0.102,10.029-0.102,10.201,0.306z"/>
<path fill="#1D9069" d="M43.201,0.306l2.478,5.865l6.344,0.545c0.44,0.038,0.619,0.587,0.285,0.876l-4.812,4.169l1.442,6.202
	c0.1,0.432-0.367,0.77-0.745,0.541l-5.452-3.288l-5.452,3.288c-0.379,0.229-0.845-0.111-0.745-0.541l1.442-6.202l-4.813-4.17
	c-0.334-0.289-0.156-0.838,0.285-0.876l6.344-0.545l2.478-5.864C42.452-0.102,43.029-0.102,43.201,0.306z"/>
<path fill="#1D9069" d="M76.201,0.306l2.479,5.865l6.344,0.545c0.439,0.038,0.619,0.587,0.285,0.876l-4.813,4.169l1.442,6.202
	c0.1,0.432-0.367,0.77-0.745,0.541l-5.452-3.288l-5.452,3.288c-0.379,0.229-0.845-0.111-0.745-0.541l1.442-6.202l-4.813-4.17
	c-0.334-0.289-0.156-0.838,0.285-0.876l6.344-0.545l2.478-5.864C75.452-0.102,76.029-0.102,76.201,0.306z"/>
<path fill="#1D9069" d="M109.201,0.306l2.479,5.865l6.344,0.545c0.439,0.038,0.619,0.587,0.285,0.876l-4.813,4.169l1.441,6.202
	c0.101,0.432-0.367,0.77-0.744,0.541l-5.452-3.288l-5.452,3.288c-0.379,0.229-0.846-0.111-0.745-0.541l1.442-6.202l-4.813-4.17
	c-0.334-0.289-0.156-0.838,0.285-0.876l6.344-0.545l2.477-5.864C108.452-0.102,109.029-0.102,109.201,0.306z"/>
<path fill="#1D9069" d="M142.201,0.306l2.479,5.865l6.344,0.545c0.439,0.038,0.619,0.587,0.285,0.876l-4.813,4.169l1.441,6.202
	c0.101,0.432-0.367,0.77-0.744,0.541l-5.452-3.288l-5.452,3.288c-0.379,0.229-0.846-0.111-0.745-0.541l1.442-6.202l-4.813-4.17
	c-0.334-0.289-0.155-0.838,0.285-0.876l6.345-0.545l2.477-5.864C141.452-0.102,142.029-0.102,142.201,0.306z"/>
</svg>
