<svg width="152" height="19" viewBox="0 0 152 19" fill="none" xmlns="http://www.w3.org/2000/svg">
<path d="M10.2013 0.306L12.6793 6.171L19.0233 6.716C19.4633 6.754 19.6423 7.303 19.3083 7.592L14.4963 11.761L15.9383 17.963C16.0383 18.394 15.5713 18.733 15.1933 18.504L9.74128 15.216L4.28928 18.504C3.91028 18.732 3.44428 18.393 3.54428 17.963L4.98628 11.761L0.173282 7.591C-0.160718 7.302 0.0172817 6.753 0.458282 6.715L6.80228 6.17L9.28028 0.306C9.45228 -0.102 10.0293 -0.102 10.2013 0.306Z" fill="#1D9069"/>
<path d="M43.2013 0.306L45.6793 6.171L52.0233 6.716C52.4633 6.754 52.6423 7.303 52.3083 7.592L47.4963 11.761L48.9383 17.963C49.0383 18.394 48.5713 18.733 48.1933 18.504L42.7413 15.216L37.2893 18.504C36.9103 18.732 36.4443 18.393 36.5443 17.963L37.9863 11.761L33.1733 7.591C32.8393 7.302 33.0173 6.753 33.4583 6.715L39.8023 6.17L42.2803 0.306C42.4523 -0.102 43.0293 -0.102 43.2013 0.306Z" fill="#1D9069"/>
<path d="M76.2013 0.306L78.6793 6.171L85.0233 6.716C85.4633 6.754 85.6423 7.303 85.3083 7.592L80.4963 11.761L81.9383 17.963C82.0383 18.394 81.5713 18.733 81.1933 18.504L75.7413 15.216L70.2893 18.504C69.9103 18.732 69.4443 18.393 69.5443 17.963L70.9863 11.761L66.1733 7.591C65.8393 7.302 66.0173 6.753 66.4583 6.715L72.8023 6.17L75.2803 0.306C75.4523 -0.102 76.0293 -0.102 76.2013 0.306Z" fill="#1D9069"/>
<path d="M109.201 0.306L111.679 6.171L118.023 6.716C118.463 6.754 118.642 7.303 118.308 7.592L113.496 11.761L114.938 17.963C115.038 18.394 114.571 18.733 114.193 18.504L108.741 15.216L103.289 18.504C102.91 18.732 102.444 18.393 102.544 17.963L103.986 11.761L99.1733 7.591C98.8393 7.302 99.0173 6.753 99.4583 6.715L105.802 6.17L108.28 0.306C108.452 -0.102 109.029 -0.102 109.201 0.306Z" fill="#1D9069"/>
<path d="M142.201 0.306L144.679 6.171L151.023 6.716C151.463 6.754 151.642 7.303 151.308 7.592L146.496 11.761L147.938 17.963C148.038 18.394 147.571 18.733 147.193 18.504L141.741 15.216L136.289 18.504C135.91 18.732 135.444 18.393 135.544 17.963L136.986 11.761L132.173 7.591C131.839 7.302 132.017 6.753 132.458 6.715L138.802 6.17L141.28 0.306C141.452 -0.102 142.029 -0.102 142.201 0.306Z" fill="#1D9069"/>
</svg>
