<svg width="15" height="15" viewBox="0 0 15 15" fill="none" xmlns="http://www.w3.org/2000/svg">
<path d="M13.5244 6.73464L6.34232 13.9164C6.21811 14.0409 6.00096 14.0409 5.87643 13.9164L1.47841 9.51833C1.28532 9.32524 0.972627 9.32524 0.779564 9.51833C0.5865 9.71126 0.5865 10.0243 0.779564 10.2172L5.17761 14.6152C5.42653 14.8643 5.7575 15.0013 6.10958 15.0013C6.46165 15.0013 6.79262 14.8643 7.04138 14.6152L14.2233 7.43348C14.4164 7.24056 14.4164 6.92754 14.2233 6.73464C14.0301 6.54158 13.7175 6.54158 13.5244 6.73464Z" fill="#3D3D3D"/>
<path d="M5.44028 13.0545C5.76186 13.3763 6.28344 13.3763 6.60518 13.0545L13.787 5.87263C14.1402 5.51942 14.2989 4.8489 14.1417 4.37493L13.3417 1.96306C13.1846 1.4891 12.6699 0.98663 12.1921 0.840675L9.60996 0.0525384C9.13239 -0.0932552 8.45887 0.0747735 8.10567 0.428005L1.04196 7.49143C0.720388 7.81317 0.720388 8.33459 1.04196 8.65633L5.44028 13.0545ZM10.0085 2.34034C10.4912 1.85762 11.2736 1.85762 11.7561 2.34034C12.2388 2.82305 12.2388 3.60542 11.7561 4.08811C11.2734 4.57082 10.491 4.57082 10.0085 4.08811C9.52594 3.60542 9.52594 2.82305 10.0085 2.34034Z" fill="#3D3D3D"/>
</svg>
